<?xml version="1.0" encoding="UTF-8" standalone="no"?><svg width="786" height="258" viewBox="0 0 786 258" fill="none" xmlns="http://www.w3.org/2000/svg">
<path fill-rule="evenodd" clip-rule="evenodd" d="M240.652 9.77321L96.293 0.311413C43.1123 -3.1743 0 37.2045 0 90.5C0 143.796 43.1123 189.826 96.293 193.311L432.848 215.37L240.652 9.77321ZM451.08 216.565L689.021 232.161C742.203 235.647 785.315 195.268 785.315 141.972C785.315 88.6768 742.203 42.6466 689.021 39.1609L258.885 10.9683L451.08 216.565Z" fill="#FF5E5E"/>
<path fill-rule="evenodd" clip-rule="evenodd" d="M317.327 99.6568C313.351 102.483 310.068 106.064 307.477 110.4C304.277 115.867 302.677 122.033 302.677 128.9C302.677 135.767 304.277 141.967 307.477 147.5C310.744 152.967 315.111 157.233 320.577 160.3C326.111 163.367 332.177 164.9 338.777 164.9C345.377 164.9 351.411 163.367 356.877 160.3C360.454 158.293 363.546 155.773 366.153 152.739L354.657 140.24C353.966 141.49 353.14 142.643 352.177 143.7C348.844 147.433 344.377 149.3 338.777 149.3C333.111 149.3 328.577 147.467 325.177 143.8C321.844 140.067 320.177 135.1 320.177 128.9C320.177 122.633 321.844 117.667 325.177 114C326.091 113.014 327.087 112.161 328.165 111.44L317.327 99.6568ZM63.1 136V94H46V135.9C46 142.167 47.2667 147.5 49.8 151.9C52.3333 156.233 55.7667 159.5 60.1 161.7C64.5 163.833 69.4667 164.9 75 164.9C80.5333 164.9 85.5333 163.8 90 161.6C94.5333 159.4 98.1333 156.133 100.8 151.8C103.467 147.467 104.8 142.167 104.8 135.9V94H87.7V136C87.7 140.2 86.6333 143.433 84.5 145.7C82.3667 147.967 79.3 149.1 75.3 149.1C71.3 149.1 68.2667 147.967 66.2 145.7C64.1333 143.433 63.1 140.2 63.1 136ZM162.508 164.2H179.608V94H162.508V137.5L133.908 94H116.808V164.2H133.908V120.9L162.508 164.2ZM234.503 128.2C238.57 129.067 241.836 131.1 244.303 134.3C246.77 137.433 248.003 141.033 248.003 145.1C248.003 150.967 245.936 155.633 241.803 159.1C237.736 162.5 232.036 164.2 224.703 164.2H192.003V94H223.603C230.736 94 236.303 95.6333 240.303 98.9C244.37 102.167 246.403 106.6 246.403 112.2C246.403 116.333 245.303 119.767 243.103 122.5C240.97 125.233 238.103 127.133 234.503 128.2ZM209.103 122.4H220.303C223.103 122.4 225.236 121.8 226.703 120.6C228.236 119.333 229.003 117.5 229.003 115.1C229.003 112.7 228.236 110.867 226.703 109.6C225.236 108.333 223.103 107.7 220.303 107.7H209.103V122.4ZM221.703 150.4C224.57 150.4 226.77 149.767 228.303 148.5C229.903 147.167 230.703 145.267 230.703 142.8C230.703 140.333 229.87 138.4 228.203 137C226.603 135.6 224.37 134.9 221.503 134.9H209.103V150.4H221.703ZM297.421 151H275.021V94H257.921V164.2H297.421V151Z" fill="white"/>
<path fill-rule="evenodd" clip-rule="evenodd" d="M389.142 138.917C391.359 136.756 393.282 134.283 394.911 131.5C398.111 125.967 399.711 119.767 399.711 112.9C399.711 106.033 398.111 99.8667 394.911 94.4C391.778 88.9333 387.444 84.6667 381.911 81.6C376.444 78.5333 370.411 77 363.811 77C357.211 77 351.144 78.5333 345.611 81.6C343.59 82.7335 341.72 84.031 340 85.4925L350.878 97.3185C354.196 94.1061 358.507 92.5 363.811 92.5C369.411 92.5 373.878 94.3667 377.211 98.1C380.611 101.767 382.311 106.7 382.311 112.9C382.311 118.547 380.87 123.178 377.987 126.79L389.142 138.917ZM410.824 94.5C407.824 99.9 406.324 106.067 406.324 113C406.324 119.933 407.824 126.1 410.824 131.5C413.824 136.9 417.991 141.133 423.324 144.2C428.724 147.2 434.824 148.7 441.624 148.7C449.958 148.7 457.091 146.533 463.024 142.2C468.958 137.8 472.924 131.8 474.924 124.2H456.124C454.724 127.133 452.724 129.367 450.124 130.9C447.591 132.433 444.691 133.2 441.424 133.2C436.158 133.2 431.891 131.367 428.624 127.7C425.358 124.033 423.724 119.133 423.724 113C423.724 106.867 425.358 101.967 428.624 98.3C431.891 94.6333 436.158 92.8 441.424 92.8C444.691 92.8 447.591 93.5667 450.124 95.1C452.724 96.6333 454.724 98.8667 456.124 101.8H474.924C472.924 94.2 468.958 88.2 463.024 83.8C457.091 79.4 449.958 77.2 441.624 77.2C434.824 77.2 428.724 78.7333 423.324 81.8C417.991 84.8 413.824 89.0333 410.824 94.5ZM526.096 148.2L502.496 117.2V148.2H485.396V78H502.496V108.8L525.896 78H545.996L518.796 112.4L546.996 148.2H526.096ZM572.623 135.8H598.823L603.023 148.2H621.123L595.723 78H575.923L550.523 148.2H568.423L572.623 135.8ZM585.723 96.9L594.423 122.6H577.123L585.723 96.9ZM655.153 78C662.553 78 669.02 79.4667 674.553 82.4C680.087 85.3333 684.353 89.4667 687.353 94.8C690.42 100.067 691.953 106.167 691.953 113.1C691.953 119.967 690.42 126.067 687.353 131.4C684.353 136.733 680.053 140.867 674.453 143.8C668.92 146.733 662.487 148.2 655.153 148.2H628.853V78H655.153ZM654.053 133.4C660.52 133.4 665.553 131.633 669.153 128.1C672.753 124.567 674.553 119.567 674.553 113.1C674.553 106.633 672.753 101.6 669.153 98C665.553 94.4 660.52 92.6 654.053 92.6H645.953V133.4H654.053ZM718.61 105.9V91.7H744.51V78H701.51V148.2H744.51V134.5H718.61V119.1H741.51V105.9H718.61Z" fill="white"/>
<path d="M250.71 233.103L251.508 220.328L255.338 220.567L255.249 221.989C255.921 221.397 256.577 220.974 257.219 220.722C257.861 220.47 258.544 220.366 259.268 220.411C260.249 220.473 261.121 220.748 261.884 221.238C262.646 221.729 263.175 222.354 263.47 223.116C264.144 222.348 264.851 221.783 265.592 221.42C266.333 221.057 267.165 220.904 268.088 220.962C269.011 221.02 269.818 221.262 270.51 221.689C271.201 222.116 271.729 222.696 272.092 223.429C272.464 224.153 272.621 224.994 272.561 225.95L272.031 234.434L268.201 234.195L268.665 226.759C268.717 225.927 268.542 225.261 268.139 224.76C267.737 224.251 267.174 223.973 266.45 223.928C265.951 223.897 265.504 223.973 265.108 224.157C264.721 224.342 264.408 224.602 264.17 224.938C263.932 225.274 263.8 225.654 263.773 226.078L263.286 233.888L259.456 233.649L259.925 226.138C259.974 225.348 259.801 224.703 259.407 224.202C259.02 223.702 258.457 223.429 257.717 223.383C257.226 223.353 256.779 223.429 256.375 223.612C255.979 223.797 255.662 224.061 255.424 224.405C255.185 224.749 255.053 225.137 255.026 225.57L254.54 233.342L250.71 233.103ZM281.646 235.434C280.474 235.361 279.423 235.004 278.495 234.361C277.575 233.711 276.864 232.857 276.363 231.798C275.87 230.732 275.664 229.542 275.746 228.228C275.826 226.947 276.168 225.816 276.772 224.835C277.377 223.846 278.171 223.086 279.156 222.554C280.15 222.015 281.263 221.784 282.493 221.861C283.4 221.917 284.233 222.145 284.993 222.543C285.762 222.933 286.377 223.452 286.838 224.098L286.935 222.539L290.765 222.778L289.968 235.553L286.138 235.314L286.243 233.63C285.618 234.267 284.917 234.741 284.138 235.051C283.358 235.362 282.528 235.49 281.646 235.434ZM282.985 232.249C283.65 232.291 284.25 232.178 284.784 231.911C285.319 231.635 285.749 231.24 286.073 230.726C286.398 230.212 286.581 229.614 286.624 228.932C286.667 228.242 286.555 227.625 286.288 227.082C286.03 226.532 285.653 226.091 285.156 225.759C284.668 225.42 284.091 225.229 283.426 225.188C282.768 225.147 282.173 225.264 281.638 225.54C281.103 225.807 280.67 226.197 280.337 226.711C280.005 227.225 279.817 227.822 279.774 228.504C279.732 229.186 279.839 229.803 280.097 230.353C280.364 230.904 280.745 231.35 281.241 231.689C281.738 232.021 282.319 232.208 282.985 232.249ZM299.738 236.564C298.582 236.491 297.543 236.139 296.623 235.505C295.711 234.864 295.004 234.014 294.502 232.955C294.001 231.897 293.791 230.707 293.874 229.384C293.954 228.087 294.301 226.948 294.913 225.967C295.526 224.979 296.329 224.219 297.323 223.688C298.325 223.149 299.445 222.919 300.685 222.996C301.583 223.052 302.404 223.279 303.147 223.676C303.891 224.065 304.497 224.583 304.966 225.23L305.606 214.987L309.436 215.226L308.096 236.684L304.266 236.445L304.371 234.761C303.765 235.383 303.063 235.853 302.267 236.17C301.471 236.488 300.628 236.619 299.738 236.564ZM301.089 233.379C301.762 233.421 302.366 233.308 302.901 233.041C303.436 232.766 303.865 232.371 304.19 231.857C304.522 231.343 304.71 230.749 304.752 230.076C304.794 229.394 304.682 228.777 304.416 228.226C304.158 227.676 303.781 227.231 303.285 226.891C302.788 226.551 302.207 226.36 301.542 226.319C300.885 226.277 300.289 226.395 299.754 226.67C299.227 226.946 298.798 227.345 298.464 227.867C298.132 228.381 297.944 228.979 297.902 229.661C297.86 230.334 297.967 230.947 298.225 231.497C298.484 232.039 298.861 232.48 299.358 232.82C299.855 233.152 300.432 233.338 301.089 233.379ZM318.715 237.748C317.334 237.662 316.113 237.289 315.052 236.63C314 235.963 313.186 235.098 312.609 234.035C312.033 232.972 311.785 231.796 311.865 230.507C311.924 229.559 312.158 228.684 312.567 227.883C312.985 227.083 313.537 226.395 314.224 225.82C314.912 225.237 315.695 224.801 316.573 224.514C317.451 224.218 318.389 224.101 319.387 224.163C320.718 224.246 321.865 224.598 322.828 225.217C323.8 225.829 324.535 226.643 325.031 227.659C325.535 228.676 325.746 229.837 325.665 231.143C325.658 231.251 325.648 231.346 325.634 231.429C325.63 231.504 325.608 231.649 325.57 231.863L315.776 231.252C315.736 231.901 315.846 232.476 316.107 232.976C316.376 233.477 316.769 233.882 317.284 234.189C317.799 234.489 318.411 234.66 319.118 234.705C319.783 234.746 320.377 234.654 320.901 234.428C321.433 234.202 321.953 233.821 322.463 233.285L325.133 234.842C324.47 235.836 323.571 236.59 322.437 237.103C321.303 237.617 320.062 237.832 318.715 237.748ZM316.046 229.14L321.984 229.51C321.932 229.015 321.779 228.579 321.527 228.204C321.283 227.83 320.96 227.534 320.556 227.317C320.152 227.1 319.688 226.975 319.164 226.942C318.607 226.908 318.11 226.973 317.674 227.137C317.238 227.302 316.879 227.555 316.599 227.897C316.319 228.238 316.135 228.653 316.046 229.14ZM343.73 239.309C342.848 239.254 342.032 239.019 341.281 238.605C340.531 238.191 339.893 237.638 339.368 236.945L339.263 238.629L335.433 238.39L336.772 216.932L340.602 217.171L339.963 227.414C340.509 226.83 341.175 226.391 341.962 226.098C342.749 225.797 343.587 225.674 344.477 225.729C345.708 225.806 346.787 226.174 347.715 226.833C348.642 227.484 349.349 228.338 349.834 229.395C350.32 230.444 350.522 231.617 350.441 232.915C350.358 234.237 350.003 235.392 349.373 236.38C348.744 237.367 347.933 238.123 346.94 238.645C345.956 239.16 344.886 239.381 343.73 239.309ZM342.785 235.981C343.459 236.023 344.059 235.91 344.585 235.643C345.111 235.366 345.536 234.976 345.86 234.47C346.185 233.956 346.368 233.362 346.41 232.688C346.452 232.006 346.341 231.389 346.074 230.839C345.809 230.279 345.432 229.83 344.944 229.49C344.455 229.151 343.883 228.961 343.226 228.92C342.569 228.879 341.969 228.996 341.425 229.271C340.891 229.546 340.457 229.941 340.124 230.455C339.792 230.968 339.604 231.57 339.561 232.261C339.519 232.934 339.626 233.546 339.884 234.097C340.151 234.639 340.533 235.081 341.029 235.421C341.534 235.753 342.12 235.94 342.785 235.981ZM352.633 245.976L357.267 238.15L351.889 226.592L356.281 226.867L359.731 234.596L363.591 227.323L367.983 227.597L357.012 246.25L352.633 245.976ZM379.621 241.549C378.54 241.481 377.582 241.25 376.746 240.856C375.919 240.462 375.243 239.919 374.719 239.226L376.489 236.757C376.986 237.356 377.516 237.823 378.079 238.159C378.643 238.494 379.216 238.68 379.798 238.717C380.122 238.737 380.404 238.7 380.644 238.607C380.892 238.514 381.089 238.372 381.234 238.18C381.389 237.981 381.475 237.736 381.493 237.445C381.514 237.112 381.434 236.844 381.255 236.641C381.084 236.438 380.812 236.246 380.439 236.064C380.067 235.874 379.585 235.635 378.994 235.348C378.492 235.099 378.012 234.823 377.555 234.519C377.098 234.215 376.733 233.841 376.46 233.399C376.196 232.956 376.084 232.411 376.124 231.762C376.173 230.972 376.437 230.291 376.915 229.72C377.394 229.14 378.031 228.704 378.825 228.411C379.629 228.119 380.537 228.005 381.552 228.068C382.184 228.107 382.839 228.244 383.518 228.479C384.205 228.714 384.931 229.051 385.697 229.491L384.233 231.867C383.203 231.11 382.264 230.705 381.416 230.652C380.942 230.622 380.557 230.703 380.261 230.893C379.965 231.083 379.808 231.336 379.788 231.652C379.769 231.952 379.898 232.223 380.176 232.466C380.461 232.701 380.811 232.919 381.224 233.12C381.646 233.313 382.049 233.493 382.431 233.658C383.056 233.931 383.606 234.224 384.079 234.538C384.56 234.852 384.928 235.246 385.182 235.721C385.437 236.188 385.541 236.8 385.494 237.557C385.436 238.48 385.163 239.252 384.673 239.873C384.192 240.486 383.521 240.936 382.66 241.225C381.807 241.514 380.794 241.622 379.621 241.549ZM388.796 241.721L390.135 220.262L393.965 220.501L393.335 230.607C393.86 230.088 394.499 229.686 395.251 229.399C396.012 229.112 396.838 228.997 397.728 229.052C398.709 229.114 399.556 229.384 400.27 229.862C400.992 230.333 401.541 230.964 401.917 231.756C402.294 232.539 402.451 233.438 402.388 234.453L401.883 242.537L398.053 242.298L398.507 235.025C398.564 234.11 398.367 233.384 397.917 232.846C397.475 232.301 396.838 232.003 396.006 231.951C395.441 231.915 394.943 232.001 394.512 232.208C394.091 232.407 393.755 232.699 393.506 233.085C393.265 233.462 393.129 233.9 393.098 234.399L392.626 241.96L388.796 241.721ZM411.448 243.535C410.275 243.462 409.224 243.104 408.296 242.462C407.376 241.811 406.666 240.957 406.164 239.899C405.671 238.833 405.465 237.643 405.547 236.328C405.627 235.048 405.969 233.917 406.573 232.936C407.178 231.947 407.972 231.186 408.957 230.655C409.951 230.116 411.064 229.885 412.295 229.961C413.201 230.018 414.035 230.245 414.795 230.643C415.563 231.034 416.178 231.552 416.639 232.199L416.736 230.639L420.566 230.878L419.769 243.654L415.939 243.414L416.044 241.73C415.42 242.368 414.718 242.842 413.939 243.152C413.16 243.462 412.329 243.59 411.448 243.535ZM412.786 240.35C413.451 240.391 414.051 240.278 414.586 240.011C415.121 239.736 415.55 239.341 415.874 238.827C416.199 238.312 416.382 237.714 416.425 237.032C416.468 236.342 416.356 235.726 416.089 235.183C415.831 234.632 415.454 234.191 414.957 233.86C414.469 233.52 413.892 233.33 413.227 233.288C412.57 233.247 411.974 233.365 411.439 233.64C410.905 233.907 410.471 234.298 410.138 234.811C409.806 235.325 409.618 235.923 409.576 236.605C409.533 237.287 409.641 237.903 409.899 238.454C410.165 239.005 410.546 239.45 411.043 239.79C411.54 240.122 412.121 240.308 412.786 240.35ZM429.539 244.664C428.383 244.592 427.344 244.239 426.424 243.605C425.512 242.964 424.805 242.114 424.304 241.056C423.802 239.998 423.592 238.807 423.675 237.485C423.756 236.187 424.102 235.048 424.715 234.068C425.327 233.079 426.13 232.319 427.124 231.789C428.126 231.25 429.247 231.019 430.486 231.097C431.384 231.153 432.205 231.379 432.948 231.776C433.692 232.165 434.299 232.683 434.768 233.33L435.407 223.088L439.237 223.327L437.898 244.785L434.068 244.546L434.173 242.862C433.566 243.483 432.865 243.953 432.068 244.271C431.272 244.588 430.429 244.72 429.539 244.664ZM430.89 241.479C431.564 241.522 432.168 241.409 432.702 241.142C433.237 240.866 433.666 240.471 433.991 239.957C434.323 239.444 434.511 238.85 434.553 238.176C434.595 237.494 434.484 236.878 434.217 236.327C433.959 235.776 433.582 235.331 433.086 234.991C432.589 234.651 432.008 234.461 431.343 234.419C430.686 234.378 430.09 234.495 429.555 234.771C429.029 235.047 428.599 235.446 428.266 235.968C427.933 236.481 427.745 237.079 427.703 237.761C427.661 238.435 427.769 239.047 428.027 239.597C428.285 240.14 428.662 240.581 429.159 240.921C429.656 241.252 430.233 241.438 430.89 241.479ZM441.328 251.512L445.962 243.685L440.584 232.128L444.975 232.402L448.425 240.132L452.286 232.858L456.677 233.132L445.707 251.785L441.328 251.512ZM460.884 246.62C459.803 246.553 458.844 246.322 458.009 245.927C457.182 245.533 456.506 244.99 455.982 244.298L457.751 241.828C458.248 242.427 458.779 242.894 459.342 243.23C459.906 243.566 460.479 243.752 461.061 243.788C461.385 243.808 461.667 243.772 461.907 243.678C462.155 243.585 462.351 243.443 462.497 243.252C462.651 243.052 462.738 242.807 462.756 242.516C462.777 242.184 462.697 241.916 462.518 241.712C462.347 241.51 462.075 241.317 461.702 241.135C461.33 240.945 460.848 240.706 460.257 240.419C459.754 240.171 459.275 239.894 458.818 239.59C458.361 239.286 457.996 238.913 457.723 238.47C457.458 238.028 457.346 237.482 457.387 236.833C457.436 236.043 457.7 235.362 458.178 234.791C458.657 234.212 459.293 233.775 460.088 233.483C460.891 233.19 461.8 233.076 462.815 233.139C463.447 233.179 464.102 233.316 464.781 233.55C465.467 233.785 466.194 234.122 466.959 234.563L465.496 236.939C464.466 236.181 463.527 235.776 462.679 235.723C462.205 235.694 461.82 235.774 461.524 235.964C461.228 236.155 461.07 236.408 461.051 236.724C461.032 237.023 461.161 237.294 461.438 237.537C461.724 237.772 462.074 237.99 462.487 238.191C462.909 238.384 463.311 238.564 463.693 238.73C464.319 239.003 464.869 239.296 465.342 239.609C465.823 239.923 466.191 240.318 466.445 240.793C466.7 241.26 466.804 241.871 466.757 242.628C466.699 243.551 466.425 244.323 465.936 244.944C465.455 245.557 464.784 246.008 463.923 246.296C463.07 246.585 462.057 246.693 460.884 246.62ZM470.059 246.792L471.398 225.334L475.228 225.573L474.598 235.678C475.123 235.16 475.761 234.757 476.514 234.47C477.275 234.184 478.101 234.068 478.99 234.124C479.972 234.185 480.819 234.455 481.532 234.934C482.255 235.404 482.804 236.036 483.18 236.827C483.557 237.611 483.714 238.51 483.651 239.524L483.146 247.609L479.316 247.37L479.77 240.096C479.827 239.181 479.63 238.455 479.18 237.918C478.738 237.373 478.101 237.074 477.269 237.022C476.704 236.987 476.206 237.073 475.775 237.28C475.354 237.479 475.018 237.771 474.769 238.156C474.528 238.533 474.392 238.972 474.361 239.471L473.889 247.031L470.059 246.792ZM492.71 248.606C491.538 248.533 490.487 248.175 489.559 247.533C488.639 246.883 487.928 246.028 487.427 244.97C486.934 243.904 486.728 242.714 486.81 241.4C486.89 240.119 487.232 238.988 487.836 238.007C488.441 237.018 489.235 236.258 490.22 235.726C491.214 235.187 492.327 234.956 493.557 235.033C494.464 235.089 495.297 235.317 496.057 235.715C496.826 236.105 497.441 236.624 497.902 237.27L497.999 235.711L501.829 235.95L501.032 248.725L497.202 248.486L497.307 246.802C496.682 247.439 495.981 247.913 495.202 248.223C494.422 248.534 493.592 248.661 492.71 248.606ZM494.049 245.421C494.714 245.463 495.314 245.35 495.848 245.082C496.383 244.807 496.813 244.412 497.137 243.898C497.462 243.384 497.645 242.786 497.688 242.104C497.731 241.413 497.619 240.797 497.352 240.254C497.094 239.704 496.717 239.263 496.22 238.931C495.732 238.592 495.155 238.401 494.49 238.36C493.832 238.319 493.237 238.436 492.702 238.712C492.167 238.979 491.734 239.369 491.401 239.883C491.069 240.396 490.881 240.994 490.838 241.676C490.796 242.358 490.903 242.975 491.161 243.525C491.428 244.076 491.809 244.521 492.305 244.861C492.802 245.193 493.384 245.38 494.049 245.421ZM505.537 249.006L506.334 236.231L510.164 236.47L510.075 237.892C510.6 237.374 511.239 236.971 511.992 236.684C512.753 236.398 513.578 236.282 514.468 236.338C515.45 236.399 516.297 236.669 517.01 237.148C517.732 237.619 518.282 238.25 518.658 239.041C519.035 239.825 519.192 240.724 519.129 241.738L518.624 249.823L514.794 249.584L515.248 242.31C515.305 241.395 515.108 240.669 514.657 240.132C514.215 239.587 513.579 239.288 512.747 239.236C512.181 239.201 511.683 239.287 511.253 239.494C510.831 239.693 510.496 239.985 510.246 240.37C510.006 240.748 509.87 241.186 509.839 241.685L509.367 249.245L505.537 249.006ZM528.999 250.871C527.619 250.785 526.398 250.412 525.337 249.753C524.284 249.086 523.47 248.221 522.894 247.159C522.317 246.096 522.069 244.919 522.149 243.63C522.209 242.682 522.443 241.808 522.852 241.006C523.269 240.206 523.821 239.518 524.508 238.943C525.196 238.36 525.979 237.924 526.857 237.637C527.735 237.341 528.674 237.224 529.672 237.287C531.002 237.37 532.149 237.721 533.113 238.34C534.085 238.952 534.819 239.766 535.315 240.782C535.819 241.799 536.031 242.96 535.949 244.266C535.942 244.374 535.932 244.47 535.919 244.552C535.914 244.627 535.892 244.772 535.854 244.987L526.061 244.375C526.02 245.024 526.13 245.599 526.391 246.099C526.661 246.6 527.053 247.005 527.568 247.312C528.084 247.612 528.695 247.784 529.402 247.828C530.067 247.869 530.662 247.777 531.185 247.551C531.717 247.325 532.238 246.944 532.747 246.408L535.418 247.965C534.754 248.959 533.856 249.713 532.722 250.227C531.587 250.74 530.347 250.955 528.999 250.871ZM526.33 242.263L532.269 242.634C532.216 242.138 532.064 241.702 531.812 241.328C531.568 240.953 531.244 240.658 530.84 240.44C530.436 240.223 529.972 240.098 529.448 240.065C528.891 240.031 528.394 240.096 527.958 240.261C527.522 240.425 527.164 240.679 526.884 241.02C526.603 241.362 526.419 241.776 526.33 242.263Z" fill="white"/>
</svg>
